<svg width="170" height="170" viewBox="0 0 170 170" fill="none" xmlns="http://www.w3.org/2000/svg">
<path d="M95.9254 108.244C115.959 117.045 137.833 111.359 144.781 95.5421C152.114 79.0968 135.47 63.4686 126.232 57.7104C103.71 41.0279 82.8269 47.1591 79.7967 51.9077L72.2318 63.6698C65.2835 79.486 75.8915 99.4426 95.9254 108.244Z" fill="#935427"/>
<path fill-rule="evenodd" clip-rule="evenodd" d="M69.1046 61.989L76.8139 50.0024C76.8153 50.0005 76.8166 49.9984 76.818 49.9962C78.2205 47.8038 81.0143 46.1923 83.9698 45.1316C87.1184 44.0016 91.1192 43.2531 95.6905 43.2308C104.845 43.186 116.396 46.0515 128.229 54.7807C133.152 57.8711 139.971 63.5151 144.682 70.6711C149.452 77.9175 152.358 87.2431 148.023 96.9754C139.988 115.248 115.569 120.741 94.5036 111.486C73.4352 102.231 60.9616 80.5249 68.9921 62.2451L69.1046 61.989ZM144.784 95.5421C152.117 79.0967 135.473 63.4686 126.234 57.7103C103.713 41.0279 82.8298 47.1592 79.7995 51.9077L72.2347 63.6697C65.2863 79.4859 75.8941 99.4425 95.9281 108.244C115.962 117.045 137.836 111.358 144.784 95.5421Z" fill="#62310F"/>
<path d="M148.953 89.2865C142.005 105.103 120.131 110.79 100.097 101.988C80.0632 93.1867 69.4552 73.2303 76.4038 57.414C83.3522 41.5978 105.226 35.9109 125.26 44.7123C145.294 53.5135 155.902 73.4701 148.953 89.2865Z" fill="#AE6937"/>
<path fill-rule="evenodd" clip-rule="evenodd" d="M152.195 90.7109C144.164 108.991 119.74 114.486 98.6717 105.231C77.603 95.9749 65.1295 74.2691 73.1602 55.9895C81.1907 37.7099 105.615 32.2139 126.683 41.4697C147.752 50.7255 160.225 72.4313 152.195 90.7109ZM100.096 101.988C120.13 110.789 142.004 105.103 148.952 89.2864C155.901 73.4701 145.293 53.5137 125.259 44.7123C105.225 35.9109 83.3512 41.5977 76.4026 57.4139C69.4542 73.2303 80.0622 93.1869 100.096 101.988Z" fill="#784018"/>
<path fill-rule="evenodd" clip-rule="evenodd" d="M105.143 44.2708C94.5118 44.2708 85.9322 50.312 83.0571 53.2555C82.3738 53.9552 81.2526 53.9684 80.553 53.2851C79.8533 52.6017 79.8402 51.4806 80.5236 50.7809C83.8466 47.3788 93.2851 40.7292 105.143 40.7292C106.121 40.7292 106.914 41.522 106.914 42.5C106.914 43.478 106.121 44.2708 105.143 44.2708Z" fill="#975728"/>
<path fill-rule="evenodd" clip-rule="evenodd" d="M112.097 105.548C122.368 103.794 130.904 98.1199 134.785 89.2865C141.733 73.4701 131.125 53.5137 111.091 44.7123C107.12 42.9675 103.075 41.792 99.0898 41.152C107.209 39.7648 116.413 40.8266 125.258 44.7123C145.292 53.5137 155.9 73.4701 148.951 89.2865C143.381 101.967 128.216 108.137 112.097 105.548Z" fill="#93592E"/>
<path d="M65.7966 129.489C86.2145 121.619 97.7293 102.172 91.5162 86.0524C85.3029 69.933 40.5622 71.596 20.1445 79.4661V90.2668C25.6849 94.0734 29.2652 100.113 29.2652 106.913C29.2652 107.704 29.2169 108.485 29.1225 109.253C35.0656 110.006 40.4597 113.107 43.7326 118.278C46.5114 122.669 47.2861 127.803 46.3164 132.737C52.5655 133.042 59.2413 132.016 65.7966 129.489Z" fill="#B8692F"/>
<path fill-rule="evenodd" clip-rule="evenodd" d="M16.6055 79.4664C16.6055 78.0018 17.5068 76.6883 18.8733 76.1617C29.6318 72.0147 46.4248 69.5937 61.3097 70.225C68.7682 70.5411 75.9832 71.6314 81.843 73.7937C87.617 75.9242 92.7313 79.3513 94.8234 84.7787C102.004 103.408 88.5453 124.517 67.0732 132.794C60.0681 135.494 52.9002 136.604 46.1464 136.275C45.1189 136.225 44.1639 135.73 43.5298 134.92C42.8958 134.11 42.6454 133.064 42.8438 132.055C43.6541 127.931 42.9959 123.733 40.7425 120.172C38.0932 115.986 33.688 113.402 28.6798 112.767C26.7446 112.521 25.372 110.758 25.6099 108.822C25.6867 108.196 25.7262 107.56 25.7262 106.913C25.7262 101.415 22.8374 96.4124 18.1415 93.1859C17.1801 92.5252 16.6056 91.4335 16.6056 90.2669L16.6055 79.4664ZM20.1472 79.4662C40.5649 71.5961 85.3055 69.9333 91.5189 86.0525C97.732 102.172 86.2172 121.619 65.7993 129.489C60.4862 131.537 55.0939 132.599 49.9138 132.766C48.7026 132.805 47.5032 132.795 46.319 132.738C46.5487 131.569 46.6805 130.389 46.7109 129.21C46.8092 125.413 45.8558 121.629 43.7352 118.278C40.4624 113.107 35.0682 110.007 29.1251 109.253C29.2195 108.485 29.2679 107.704 29.2679 106.913C29.2679 100.113 25.6876 94.0737 20.1472 90.2669V79.4662Z" fill="#673512"/>
<path fill-rule="evenodd" clip-rule="evenodd" d="M44.4935 120.836C45.4713 120.836 46.2643 121.629 46.2643 122.607V132.79C46.2643 133.767 45.4713 134.56 44.4935 134.56C43.5155 134.56 42.7227 133.767 42.7227 132.79V122.607C42.7227 121.629 43.5155 120.836 44.4935 120.836Z" fill="#673512"/>
<path fill-rule="evenodd" clip-rule="evenodd" d="M20.1445 87.7582C42.0993 84.0997 70.7025 85.7983 75.5783 98.4482C79.316 108.145 76.6384 119.046 69.4667 127.906C87.5658 119.236 97.3467 101.179 91.5162 86.0524C85.3029 69.933 40.5622 71.596 20.1445 79.4661V87.7582Z" fill="#9D5622"/>
<path fill-rule="evenodd" clip-rule="evenodd" d="M65.7966 118.864C86.2143 110.994 97.7293 91.5466 91.516 75.4274C85.3027 59.3081 63.7139 52.6209 43.2962 60.491C32.8604 64.5136 24.7503 71.5606 20.1445 79.6418C25.6848 83.4484 29.265 89.4882 29.265 96.2884C29.265 97.0792 29.2167 97.86 29.1223 98.628C35.0656 99.3813 40.4597 102.482 43.7324 107.653C46.5112 112.044 47.2859 117.178 46.3162 122.112C52.5653 122.417 59.2413 121.391 65.7966 118.864Z" fill="#CC7A3D"/>
<path fill-rule="evenodd" clip-rule="evenodd" d="M18.138 82.5608C16.6207 81.5183 16.1551 79.4874 17.0666 77.8881C22.1081 69.0426 30.885 61.4791 42.0216 57.1866C63.4937 48.9099 87.6388 55.5239 94.8197 74.1536C102.001 92.7835 88.5416 113.892 67.0695 122.169C60.0645 124.869 52.8965 125.979 46.1429 125.65C45.1153 125.6 44.1603 125.105 43.5261 124.295C42.8922 123.485 42.6418 122.439 42.8401 121.43C43.6504 117.306 42.9922 113.108 40.7388 109.547C38.0895 105.361 33.6844 102.776 28.6761 102.142C26.7409 101.896 25.3685 100.132 25.6062 98.1964C25.683 97.5711 25.7225 96.9345 25.7225 96.2883C25.7225 90.7902 22.8339 85.7875 18.138 82.5608ZM20.1435 79.6418C24.7495 71.5606 32.8595 64.5137 43.2954 60.4911C63.7131 52.621 85.3019 59.3082 91.5152 75.4274C97.7285 91.5467 86.2135 110.994 65.7958 118.864C60.4826 120.912 55.0902 121.974 49.9102 122.141C48.6991 122.18 47.4995 122.17 46.3154 122.112C46.545 120.944 46.6768 119.764 46.7073 118.585C46.8055 114.788 45.8521 111.004 43.7315 107.653C40.4589 102.482 35.0646 99.3814 29.1215 98.6281C29.2158 97.8599 29.2642 97.0794 29.2642 96.2883C29.2642 89.4883 25.6839 83.4486 20.1435 79.6418Z" fill="#773E15"/>
<path fill-rule="evenodd" clip-rule="evenodd" d="M23.9363 78.1124C24.4394 77.274 25.5272 77.002 26.3657 77.5051C29.9114 79.6325 32.2629 83.239 33.7724 86.6794C35.0011 89.4805 35.7341 92.3131 36.0955 94.4726C41.3715 95.3729 45.2452 99.1083 47.9135 103.196C50.4081 107.017 52.0063 111.369 52.8414 114.708C58.2449 113.901 69.0943 110.794 78.5705 103.104C79.3301 102.488 80.4453 102.604 81.0616 103.363C81.6778 104.123 81.5617 105.238 80.8023 105.854C69.6767 114.883 56.8063 117.989 51.6098 118.419L50.0318 118.549L49.7261 116.996C49.1136 113.88 47.5622 109.137 44.9479 105.132C42.3223 101.11 38.8373 98.1347 34.4104 97.8346L32.9277 97.7342L32.7694 96.2566C32.5654 94.3526 31.8878 91.1998 30.5289 88.1023C29.1608 84.9831 27.1958 82.1335 24.5437 80.542C23.705 80.0389 23.433 78.9511 23.9363 78.1124Z" fill="#E08847"/>
<path fill-rule="evenodd" clip-rule="evenodd" d="M66.5809 112.427C66.9472 113.334 66.5093 114.366 65.6025 114.733C59.698 117.119 54.5137 118.178 51.6122 118.418C50.6375 118.499 49.782 117.774 49.7015 116.8C49.6207 115.825 50.3455 114.969 51.3202 114.889C53.8234 114.682 58.659 113.719 64.2756 111.449C65.1823 111.083 66.2145 111.521 66.5809 112.427Z" fill="#F29754"/>
<path d="M59.286 65.9494C59.2525 67.5482 57.5688 68.8095 55.5251 68.7667C53.4815 68.7238 51.852 67.3932 51.8855 65.7945C51.9191 64.1958 53.6028 62.9346 55.6464 62.9773C57.6899 63.0201 59.3194 64.3507 59.286 65.9494ZM68.3836 66.4398C68.3608 67.5342 67.2081 68.3974 65.8092 68.3682C64.4102 68.339 63.2948 67.4281 63.3178 66.3337C63.3406 65.2393 64.4933 64.3759 65.8922 64.4051C67.2912 64.4345 68.4066 65.3454 68.3836 66.4398ZM79.5057 69.9653C79.4827 71.0597 78.33 71.9232 76.9311 71.894C75.5323 71.8646 74.4167 70.9536 74.4397 69.8593C74.4625 68.7649 75.6152 67.9014 77.0141 67.9308C78.4131 67.9601 79.5285 68.871 79.5057 69.9653ZM71.1512 71.7158C71.1342 72.5304 70.2761 73.173 69.2348 73.1512C68.1936 73.1295 67.3633 72.4514 67.3803 71.6368C67.3973 70.8222 68.2552 70.1794 69.2966 70.2012C70.3379 70.223 71.1682 70.901 71.1512 71.7158ZM62.3509 60.6644C62.3339 61.4792 61.4758 62.1218 60.4345 62.1C59.3933 62.0782 58.5629 61.4002 58.5799 60.5856C58.5969 59.7708 59.4549 59.1282 60.4963 59.15C61.5376 59.1718 62.3679 59.8498 62.3509 60.6644ZM74.3101 63.6143C74.2931 64.4288 73.4351 65.0716 72.3937 65.0499C71.3524 65.0281 70.5221 64.35 70.5391 63.5353C70.5561 62.7207 71.414 62.0781 72.4555 62.0998C73.4967 62.1216 74.3271 62.7997 74.3101 63.6143ZM86.5648 71.9864C86.5478 72.801 85.6896 73.4438 84.6484 73.422C83.6071 73.4 82.7768 72.722 82.7938 71.9074C82.8108 71.0928 83.6687 70.45 84.7102 70.472C85.7514 70.4938 86.5818 71.1718 86.5648 71.9864ZM41.5874 72.6813C41.5789 73.087 41.1516 73.407 40.6329 73.3962C40.1142 73.3854 39.7007 73.0477 39.7092 72.642C39.7177 72.2363 40.145 71.9161 40.6637 71.9269C41.1822 71.9379 41.5957 72.2756 41.5874 72.6813ZM47.2184 63.6936C47.2013 64.5082 46.3433 65.151 45.302 65.1292C44.2606 65.1074 43.4303 64.4294 43.4474 63.6146C43.4644 62.8 44.3224 62.1574 45.3637 62.1792C46.4051 62.2009 47.2354 62.879 47.2184 63.6936ZM49.9786 69.4833C49.9616 70.2981 49.1035 70.9407 48.0622 70.9189C47.021 70.8972 46.1906 70.2191 46.2076 69.4045C46.2246 68.5898 47.0826 67.9471 48.124 67.9689C49.1653 67.9907 49.9956 68.6687 49.9786 69.4833ZM77.0324 76.2206C77.0154 77.0352 76.1572 77.678 75.116 77.6562C74.0745 77.6345 73.2442 76.9564 73.2614 76.1417C73.2784 75.3271 74.1363 74.6844 75.1778 74.7062C76.219 74.728 77.0494 75.406 77.0324 76.2206ZM41.8064 67.6031C41.7892 68.4176 40.9313 69.0603 39.89 69.0385C38.8486 69.0167 38.0182 68.3387 38.0354 67.5241C38.0524 66.7093 38.9104 66.0667 39.9518 66.0885C40.9931 66.1102 41.8234 66.7883 41.8064 67.6031ZM63.2121 72.7711C63.1912 73.7702 62.1388 74.5585 60.8616 74.5318C59.5843 74.5051 58.5657 73.6733 58.5868 72.6742C58.6077 71.6749 59.6601 70.8867 60.9373 70.9134C62.2146 70.9402 63.233 71.7718 63.2121 72.7711Z" fill="#BE6E34"/>
<path d="M110.742 58.4804C109.508 60.9344 105.965 61.6454 102.828 60.0685C99.6913 58.4915 98.1484 55.2238 99.3822 52.77C100.616 50.3159 104.159 49.605 107.296 51.1819C110.433 52.7588 111.975 56.0265 110.742 58.4804Z" fill="#3C1D0C"/>
<path d="M128.08 53.0381C127.361 54.4668 125.299 54.8807 123.472 53.9627C121.646 53.0445 120.748 51.1423 121.466 49.7136C122.184 48.2849 124.247 47.871 126.073 48.789C127.9 49.707 128.798 51.6094 128.08 53.0381ZM136.081 57.396C135.589 58.374 134.177 58.6573 132.927 58.0289C131.677 57.4004 131.062 56.0981 131.553 55.1201C132.045 54.1421 133.457 53.8587 134.707 54.4872C135.957 55.1157 136.572 56.4179 136.081 57.396ZM144.603 65.3647C144.111 66.3428 142.699 66.6261 141.449 65.9976C140.199 65.3691 139.584 64.0669 140.076 63.0889C140.567 62.1108 141.979 61.8275 143.229 62.4559C144.48 63.0844 145.094 64.3867 144.603 65.3647ZM136.308 63.3493C135.942 64.0773 134.891 64.2882 133.961 63.8204C133.03 63.3527 132.572 62.3832 132.938 61.6552C133.304 60.9272 134.355 60.7163 135.286 61.1841C136.217 61.652 136.674 62.6213 136.308 63.3493ZM118.157 45.8087C117.791 46.5367 116.74 46.7476 115.81 46.2799C114.879 45.8121 114.421 44.8427 114.787 44.1147C115.153 43.3866 116.204 43.1757 117.135 43.6435C118.066 44.1114 118.523 45.0807 118.157 45.8087ZM118.157 52.2228C117.791 52.9508 116.74 53.1617 115.81 52.6939C114.879 52.2262 114.421 51.2567 114.787 50.5287C115.153 49.8007 116.204 49.5898 117.135 50.0576C118.066 50.5255 118.523 51.4949 118.157 52.2228ZM139.678 69.9468C139.312 70.6747 138.261 70.8856 137.331 70.4178C136.4 69.9499 135.942 68.9806 136.308 68.2526C136.674 67.5246 137.726 67.3137 138.656 67.7816C139.587 68.2492 140.044 69.2188 139.678 69.9468ZM111.59 47.0084C111.224 47.7364 110.173 47.9473 109.242 47.4795C108.312 47.0118 107.854 46.0425 108.22 45.3143C108.586 44.5863 109.637 44.3754 110.567 44.8432C111.498 45.3111 111.956 46.2805 111.59 47.0084ZM128.688 60.8852C128.239 61.7783 126.95 62.037 125.809 61.463C124.667 60.8893 124.106 59.7004 124.554 58.8073C125.003 57.9145 126.292 57.6558 127.434 58.2295C128.575 58.8033 129.137 59.9924 128.688 60.8852Z" fill="#D78346"/>
<path d="M49.0142 77.9734C49.8049 80.0603 48.2834 82.5715 45.6158 83.5825C42.9481 84.5933 40.1445 83.721 39.3536 81.6341C38.5628 79.5471 40.0843 77.0359 42.752 76.0249C45.4198 75.0141 48.2234 75.8865 49.0142 77.9734ZM79.5372 85.422C80.5105 87.9905 78.6378 91.0811 75.3547 92.3251C72.0716 93.5693 68.6211 92.4956 67.6478 89.9272C66.6746 87.3588 68.5472 84.2682 71.8304 83.0242C75.1135 81.7801 78.564 82.8536 79.5372 85.422ZM55.7868 98.0054C56.3891 99.5944 55.2304 101.507 53.1993 102.276C51.1681 103.046 49.0334 102.382 48.4313 100.793C47.8292 99.2037 48.9877 97.2916 51.0188 96.522C53.05 95.7522 55.1847 96.4164 55.7868 98.0054ZM116.16 85.9037C114.926 88.3577 111.383 89.0687 108.246 87.4918C105.11 85.9149 103.567 82.6471 104.8 80.1931C106.034 77.7393 109.577 77.0283 112.714 78.6052C115.851 80.1821 117.394 83.4497 116.16 85.9037ZM140.869 79.6479C139.636 82.1019 136.093 82.8129 132.956 81.236C129.819 79.659 128.276 76.3913 129.51 73.9373C130.743 71.4833 134.286 70.7723 137.423 72.3492C140.56 73.9261 142.103 77.1939 140.869 79.6479Z" fill="#3C1D0C"/>
</svg>
