<svg width="167" height="49" viewBox="0 0 167 49" fill="none" xmlns="http://www.w3.org/2000/svg">
<g clip-path="url(#clip0_0_1343)">
<path fill-rule="evenodd" clip-rule="evenodd" d="M22.0127 11.6052C26.7182 5.52209 32.2104 -0.000610352 41.7261 -0.000610352C55.1337 -0.000610352 65.9997 10.8027 65.9997 24.1251C65.9997 37.4477 55.1323 48.2497 41.7261 48.2497C33.6888 48.2497 27.0019 45.2667 22.5112 38.9013C21.5571 37.5489 21.8867 35.6839 23.2475 34.7356C24.6083 33.7874 26.4848 34.115 27.4389 35.4674C30.6395 40.0041 35.3477 42.2683 41.7261 42.2683C51.8083 42.2683 59.9814 34.1445 59.9814 24.1251C59.9814 14.1054 51.8091 5.98079 41.7261 5.98079C35.1488 5.98079 31.2171 9.51476 26.7613 15.2801L26.7611 15.2804C26.0792 16.1625 25.0885 16.8078 24.2819 17.2461C23.3992 17.7258 22.3855 18.1437 21.3661 18.4604C20.352 18.7755 19.2406 19.019 18.164 19.0969C17.1676 19.1691 15.8209 19.1303 14.6045 18.5259C13.1181 17.7872 12.5155 15.9908 13.2588 14.5134C13.9851 13.0698 15.7276 12.4651 17.1938 13.1275C17.2355 13.1328 17.3982 13.1551 17.7267 13.1313C18.2317 13.0948 18.8779 12.9666 19.5704 12.7514C20.2576 12.5379 20.8996 12.267 21.3947 11.998C21.849 11.7511 22.0112 11.5972 22.0149 11.601C22.0152 11.6013 22.0145 11.6027 22.0127 11.6052Z" fill="#FFD600"/>
<path fill-rule="evenodd" clip-rule="evenodd" d="M15.848 13.4578C17.51 13.4578 18.8572 14.7967 18.8572 16.4485V35.1898C18.8572 36.8415 17.51 38.1805 15.848 38.1805C14.1861 38.1805 12.8389 36.8415 12.8389 35.1898V16.4485C12.8389 14.7967 14.1861 13.4578 15.848 13.4578Z" fill="#FFD600"/>
<path fill-rule="evenodd" clip-rule="evenodd" d="M1.78948 13.8207C3.20396 12.9254 5.08091 13.3392 5.98177 14.745L17.9999 33.4993C18.9008 34.9051 18.4844 36.7706 17.0699 37.6659C15.6555 38.5612 13.7785 38.1474 12.8776 36.7416L0.85949 17.9872C-0.0413682 16.5814 0.375003 14.716 1.78948 13.8207Z" fill="#FFD600"/>
<path fill-rule="evenodd" clip-rule="evenodd" d="M21.9965 24.0342C22.5292 22.5572 24.1658 21.789 25.652 22.3184L44.3182 28.9679C45.8043 29.4973 46.5773 31.1238 46.0446 32.6009C45.5119 34.0779 43.8753 34.8461 42.3891 34.3167L23.723 27.6672C22.2368 27.1378 21.4638 25.5112 21.9965 24.0342Z" fill="#FFD600"/>
<path fill-rule="evenodd" clip-rule="evenodd" d="M45.5805 15.1411C46.2522 16.5611 45.6385 18.2534 44.2098 18.9209L26.2649 27.3057C24.8362 27.9733 23.1335 27.3634 22.4618 25.9434C21.7901 24.5235 22.4038 22.8312 23.8325 22.1636L41.7773 13.7788C43.206 13.1112 44.9088 13.7212 45.5805 15.1411Z" fill="#FFD600"/>
<path fill-rule="evenodd" clip-rule="evenodd" d="M3.0082 13.4578C4.67012 13.4578 6.01738 14.7967 6.01738 16.4485V35.1898C6.01738 36.8415 4.67012 38.1805 3.0082 38.1805C1.34628 38.1805 -0.000976562 36.8415 -0.000976562 35.1898V16.4485C-0.000976562 14.7967 1.34628 13.4578 3.0082 13.4578Z" fill="#FFD600"/>
<path fill-rule="evenodd" clip-rule="evenodd" d="M38.1152 18.0439C39.5001 18.0439 40.6229 19.1598 40.6229 20.5363V28.3116C40.6229 29.688 39.5001 30.8039 38.1152 30.8039C36.7302 30.8039 35.6074 29.688 35.6074 28.3116V20.5363C35.6074 19.1598 36.7302 18.0439 38.1152 18.0439Z" fill="#FFD600"/>
</g>
<path d="M85 7.00562H96.4913C99.0894 7.00562 101.382 7.51276 103.369 8.52707C105.272 9.46412 106.88 10.9759 107.998 12.8783C109.097 14.7636 109.646 16.9833 109.648 19.5375C109.649 22.0916 109.099 24.3119 107.998 26.1984C106.881 28.1009 105.273 29.6123 103.369 30.5478C101.382 31.5585 99.0894 32.0638 96.4913 32.0638H85V7.00562ZM96.1632 25.4818C97.8508 25.4818 99.1994 24.9624 100.209 23.9236C101.219 22.8848 101.724 21.4227 101.725 19.5375C101.725 17.6522 101.22 16.1901 100.209 15.1513C99.1982 14.1125 97.8496 13.5937 96.1632 13.5949H92.8609V25.4818H96.1632Z" fill="white"/>
<path d="M136.558 7.00549V32.0637H130.097L121.238 20.6711V32.0637H113.577V7.00549H120.038L128.897 18.3981V7.00549H136.558Z" fill="white"/>
<path d="M157.308 27.7014H148.449L146.884 32.0637H138.895L149.087 7H156.814L167 32.0637H158.874L157.308 27.7014ZM155.143 21.6137L152.878 15.3129L150.613 21.6137H155.143Z" fill="white"/>
<path d="M103.638 47.3151C103.963 47.1697 104.252 46.9429 104.48 46.6536L104.957 47.2453C104.677 47.6047 104.321 47.8864 103.918 48.0667C103.421 48.2772 102.889 48.3716 102.356 48.3438C101.823 48.3159 101.301 48.1663 100.826 47.905C100.337 47.6227 99.9317 47.1979 99.6568 46.6793C99.3733 46.1395 99.2293 45.5279 99.2398 44.908C99.2305 44.2905 99.3681 43.6807 99.6398 43.1366C99.8946 42.6275 100.277 42.2054 100.744 41.9183C101.231 41.6216 101.784 41.4706 102.344 41.481C102.872 41.4733 103.393 41.6153 103.855 41.8926C104.301 42.163 104.673 42.557 104.93 43.0337C105.201 43.542 105.347 44.1163 105.354 44.7022L100.195 45.7808C100.339 46.303 100.644 46.7568 101.06 47.0671C101.502 47.387 102.026 47.5508 102.559 47.5356C102.929 47.5404 103.296 47.4654 103.638 47.3151ZM101.166 42.5908C100.821 42.8094 100.54 43.1277 100.354 43.5096C100.154 43.9235 100.054 44.3846 100.062 44.851C100.06 44.9455 100.064 45.04 100.074 45.134L104.504 44.2152C104.421 43.6737 104.163 43.1808 103.776 42.8224C103.378 42.4535 102.867 42.257 102.342 42.2711C101.93 42.2616 101.524 42.3721 101.166 42.5908V42.5908Z" fill="white"/>
<path d="M107.925 47.8351C107.618 47.4933 107.465 47.018 107.465 46.4092V38.7596H108.319V46.3338C108.297 46.6647 108.391 46.9927 108.583 47.2526C108.685 47.363 108.809 47.4483 108.945 47.5025C109.081 47.5567 109.226 47.5787 109.371 47.5668C109.567 47.5723 109.762 47.5328 109.943 47.4511L110.003 48.2081C109.758 48.3028 109.499 48.3507 109.239 48.3496C108.669 48.3484 108.231 48.1769 107.925 47.8351Z" fill="white"/>
<path d="M115.183 47.3151C115.509 47.1697 115.798 46.9429 116.026 46.6536L116.503 47.2453C116.223 47.6047 115.866 47.8864 115.464 48.0667C114.967 48.2772 114.435 48.3716 113.901 48.3438C113.368 48.3159 112.847 48.1663 112.372 47.905C111.882 47.6227 111.476 47.1979 111.201 46.6793C110.918 46.1392 110.774 45.5278 110.784 44.908C110.774 44.2905 110.912 43.6807 111.184 43.1366C111.438 42.6275 111.821 42.2054 112.288 41.9183C112.775 41.6216 113.328 41.4706 113.888 41.481C114.416 41.4733 114.937 41.6153 115.399 41.8926C115.845 42.163 116.217 42.557 116.474 43.0337C116.745 43.542 116.891 44.1163 116.898 44.7022L111.739 45.7808C111.883 46.303 112.188 46.7568 112.604 47.0671C113.046 47.387 113.57 47.5508 114.103 47.5356C114.473 47.5406 114.841 47.4656 115.183 47.3151ZM112.712 42.5908C112.366 42.8094 112.085 43.1277 111.9 43.5096C111.7 43.9235 111.599 44.3846 111.608 44.851C111.606 44.9455 111.61 45.04 111.619 45.134L116.05 44.2152C115.966 43.6737 115.709 43.1808 115.322 42.8224C114.924 42.4535 114.413 42.257 113.888 42.2711C113.476 42.2616 113.07 42.3721 112.712 42.5908V42.5908Z" fill="white"/>
<path d="M119.947 47.9123C119.464 47.6277 119.065 47.2031 118.795 46.6867C118.515 46.143 118.373 45.5295 118.383 44.908C118.374 44.2882 118.518 43.6768 118.8 43.1366C119.071 42.6231 119.47 42.2012 119.952 41.9183C120.464 41.621 121.038 41.4703 121.619 41.481C122.121 41.4723 122.617 41.5886 123.07 41.8209C123.489 42.0415 123.839 42.3874 124.079 42.8169L123.446 43.2781C123.251 42.9561 122.979 42.6966 122.658 42.5265C122.334 42.3593 121.979 42.2738 121.619 42.2766C121.192 42.2701 120.77 42.3828 120.395 42.6037C120.033 42.819 119.736 43.1426 119.541 43.5353C119.34 43.9627 119.235 44.4348 119.235 44.9135C119.235 45.3922 119.34 45.8642 119.541 46.2916C119.738 46.6795 120.034 46.9983 120.395 47.2104C120.77 47.4322 121.192 47.5449 121.619 47.5374C121.978 47.5412 122.333 47.4577 122.658 47.2931C122.978 47.1301 123.251 46.8759 123.446 46.558L124.079 47.0211C123.837 47.4516 123.485 47.797 123.063 48.0152C122.613 48.2475 122.118 48.3638 121.619 48.3551C121.036 48.3642 120.46 48.2117 119.947 47.9123Z" fill="white"/>
<path d="M129.113 47.8663C128.943 48.0271 128.743 48.1473 128.527 48.2191C128.291 48.3007 128.046 48.3417 127.798 48.3404C127.21 48.3404 126.756 48.1695 126.431 47.8278C126.106 47.486 125.954 47.0027 125.954 46.378V40.0569H126.809V41.5269H128.706V42.2968H126.809V46.3283C126.786 46.6611 126.884 46.9906 127.082 47.2471C127.188 47.357 127.313 47.4417 127.451 47.4958C127.589 47.55 127.736 47.5723 127.882 47.5613C128.222 47.577 128.555 47.4535 128.814 47.2159L129.113 47.8663Z" fill="white"/>
<path d="M132.741 41.8282C133.194 41.5818 133.697 41.4623 134.205 41.4809V42.3666L134.001 42.3537C133.34 42.3537 132.823 42.5718 132.449 43.0079C132.075 43.444 131.888 44.0565 131.887 44.8454V48.2852H131.032V41.5323H131.844V42.8553C132.031 42.4167 132.346 42.0558 132.741 41.8282V41.8282Z" fill="white"/>
<path d="M136.097 39.8639C136.039 39.804 135.993 39.732 135.962 39.6524C135.931 39.5727 135.916 39.4871 135.917 39.4009C135.917 39.3169 135.933 39.2338 135.964 39.1567C135.994 39.0796 136.04 39.0101 136.097 38.9525C136.155 38.8911 136.224 38.8432 136.3 38.8116C136.376 38.78 136.458 38.7654 136.539 38.7688C136.62 38.7665 136.701 38.7816 136.777 38.8131C136.853 38.8447 136.922 38.8921 136.98 38.9525C137.037 39.0088 137.083 39.0772 137.114 39.1535C137.145 39.2298 137.16 39.3122 137.16 39.3954C137.159 39.5274 137.122 39.6562 137.053 39.7657C136.985 39.8753 136.888 39.9608 136.775 40.0115C136.661 40.0623 136.537 40.076 136.416 40.0511C136.295 40.0261 136.184 39.9636 136.097 39.8713V39.8639ZM136.108 41.5324H136.963V48.2834H136.108V41.5324Z" fill="white"/>
<path d="M140.64 47.9123C140.157 47.6277 139.758 47.2031 139.488 46.6867C139.204 46.1441 139.058 45.5305 139.066 44.908C139.056 44.2882 139.2 43.6768 139.483 43.1366C139.754 42.6231 140.153 42.2012 140.635 41.9184C141.146 41.6207 141.72 41.4701 142.302 41.481C142.803 41.472 143.299 41.5884 143.751 41.821C144.17 42.041 144.521 42.3869 144.761 42.8169L144.132 43.2726C143.938 42.9498 143.665 42.69 143.344 42.521C143.021 42.3536 142.666 42.2682 142.307 42.2711C141.879 42.2643 141.458 42.377 141.083 42.5982C140.72 42.813 140.423 43.1367 140.228 43.5299C140.028 43.9572 139.923 44.4293 139.923 44.908C139.923 45.3867 140.028 45.8587 140.228 46.2861C140.425 46.6743 140.722 46.9933 141.083 47.2049C141.457 47.4269 141.879 47.5396 142.307 47.5319C142.665 47.5359 143.02 47.4523 143.344 47.2875C143.665 47.1257 143.938 46.8712 144.132 46.5525L144.766 47.0156C144.525 47.4457 144.172 47.791 143.751 48.0097C143.301 48.2418 142.806 48.3581 142.307 48.3496C141.725 48.3597 141.152 48.2091 140.64 47.9123Z" fill="white"/>
<path d="M147.028 48.1107C146.631 47.9908 146.26 47.7879 145.936 47.5135L146.318 46.795C146.616 47.0396 146.952 47.2261 147.31 47.3463C147.71 47.488 148.129 47.5593 148.551 47.5576C149.12 47.5576 149.544 47.4614 149.822 47.2691C149.952 47.1847 150.059 47.0646 150.131 46.9212C150.204 46.7778 150.239 46.6163 150.234 46.4533C150.239 46.3441 150.221 46.2352 150.182 46.1344C150.143 46.0337 150.083 45.9436 150.007 45.8708C149.84 45.7203 149.645 45.6106 149.434 45.5492C149.132 45.4592 148.825 45.3886 148.515 45.3379C148.1 45.2595 147.689 45.1546 147.286 45.0237C146.981 44.918 146.706 44.7279 146.491 44.4724C146.259 44.1752 146.142 43.7939 146.163 43.4067C146.159 43.1355 146.217 42.8675 146.332 42.6258C146.446 42.3841 146.613 42.1759 146.819 42.0193C147.257 41.6616 147.866 41.4822 148.646 41.481C149.057 41.4814 149.466 41.5395 149.863 41.6537C150.219 41.7459 150.558 41.8998 150.867 42.1094L150.498 42.8444C149.951 42.4508 149.304 42.2492 148.646 42.2674C148.105 42.2674 147.698 42.3703 147.423 42.5761C147.295 42.6616 147.19 42.7808 147.118 42.9224C147.046 43.064 147.009 43.2232 147.011 43.3846C147.006 43.4992 147.024 43.6135 147.064 43.7197C147.104 43.826 147.165 43.9216 147.243 44.0002C147.409 44.1608 147.607 44.2773 147.823 44.3401C148.137 44.4338 148.456 44.5093 148.778 44.5661C149.185 44.6432 149.587 44.7457 149.983 44.873C150.28 44.9723 150.548 45.1542 150.759 45.4004C150.986 45.6842 151.102 46.0518 151.082 46.4257C151.089 46.7032 151.03 46.978 150.91 47.224C150.79 47.47 150.614 47.6791 150.398 47.8314C149.943 48.1793 149.308 48.3526 148.494 48.3514C147.997 48.3527 147.502 48.2715 147.028 48.1107V48.1107Z" fill="white"/>
<defs>
<clipPath id="clip0_0_1343">
<rect width="66" height="49" fill="white"/>
</clipPath>
</defs>
</svg>
