<svg width="17" height="23" viewBox="0 0 17 23" fill="none" xmlns="http://www.w3.org/2000/svg">
<path d="M15.3092 3.93815C13.9133 1.52926 11.434 0.0575732 8.67694 0.00133105C8.55924 -0.00109473 8.44078 -0.00109473 8.32304 0.00133105C5.56601 0.0575732 3.08668 1.52926 1.69078 3.93815C0.26397 6.40041 0.224932 9.35806 1.58633 11.8499L7.28975 22.2892C7.29231 22.2938 7.29487 22.2984 7.29752 22.303C7.54846 22.7392 7.99799 22.9995 8.50008 22.9995C9.00213 22.9995 9.45166 22.7391 9.70255 22.303C9.7052 22.2984 9.70776 22.2938 9.71032 22.2892L15.4137 11.8499C16.775 9.35806 16.736 6.40041 15.3092 3.93815ZM8.49999 10.4214C6.71655 10.4214 5.26562 8.97048 5.26562 7.18703C5.26562 5.40359 6.71655 3.95266 8.49999 3.95266C10.2834 3.95266 11.7344 5.40359 11.7344 7.18703C11.7344 8.97048 10.2835 10.4214 8.49999 10.4214Z" fill="#FFD600"/>
</svg>
