<svg width="108" height="108" viewBox="0 0 108 108" fill="none" xmlns="http://www.w3.org/2000/svg">
<path d="M76.5014 36.8397C76.1711 36.5091 75.779 36.2468 75.3474 36.0678C74.9158 35.8889 74.4531 35.7968 73.9859 35.7968C73.5188 35.7968 73.0561 35.8889 72.6245 36.0678C72.1929 36.2468 71.8008 36.5091 71.4705 36.8397L44.7372 63.5741L36.4394 55.2715C36.1091 54.941 35.7169 54.6788 35.2853 54.4999C34.8537 54.321 34.3911 54.229 33.924 54.229C33.4568 54.229 32.9942 54.321 32.5626 54.4999C32.131 54.6788 31.7389 54.941 31.4085 55.2715C31.0782 55.602 30.8162 55.9944 30.6374 56.4262C30.4586 56.8581 30.3666 57.3209 30.3666 57.7883C30.3666 58.2558 30.4586 58.7186 30.6374 59.1505C30.8162 59.5823 31.0782 59.9747 31.4085 60.3052L42.2242 71.1223C42.5544 71.453 42.9466 71.7153 43.3782 71.8942C43.8098 72.0732 44.2724 72.1653 44.7396 72.1653C45.2068 72.1653 45.6694 72.0732 46.101 71.8942C46.5326 71.7153 46.9248 71.453 47.255 71.1223L76.5014 41.8593C77.1656 41.1931 77.5386 40.2905 77.5386 39.3495C77.5386 38.4085 77.1656 37.5059 76.5014 36.8397ZM102.386 45.1139C101.262 44.0986 99.5694 42.5614 99.3655 41.7928C99.1379 40.9388 99.8397 38.7707 100.338 37.1861C101.381 33.9172 102.561 30.2119 100.684 26.9668C98.806 23.7217 94.9558 22.8535 91.5798 22.1228C90.0672 21.7955 87.7865 21.3021 87.189 20.6995C86.5916 20.097 86.1079 17.8197 85.7665 16.3063C85.0363 12.9283 84.2113 9.09963 80.9253 7.19715C77.6394 5.29468 73.9788 6.49974 70.7166 7.54349C69.1282 8.04639 66.9612 8.73906 66.1077 8.49236C65.3586 8.28835 63.8223 6.59462 62.7886 5.47022C60.4794 2.93674 57.8194 0 53.955 0C50.0905 0 47.4162 2.93674 45.0881 5.52715C44.0971 6.64207 42.5371 8.34528 41.7879 8.5398C40.9344 8.76753 38.7675 8.06537 37.1791 7.59093C33.9168 6.54718 30.2136 5.36584 26.9704 7.2446C23.7271 9.12335 22.8594 12.9758 22.1292 16.3537C21.802 17.8672 21.3089 20.1492 20.7067 20.747C20.1045 21.3448 17.8285 21.8287 16.3159 22.1703C12.9541 22.8724 9.12763 23.7217 7.22624 26.9858C5.32484 30.2499 6.52922 33.9362 7.5866 37.2051C8.08921 38.7897 8.78623 40.9578 8.53493 41.8118C8.33104 42.5614 6.63828 44.0986 5.51451 45.1328C2.93507 47.4433 0 50.1191 0 53.9858C0 57.8524 2.93507 60.514 5.52399 62.8577C6.64776 63.873 8.34052 65.4101 8.54441 66.1787C8.77201 67.0327 8.07025 69.2008 7.59608 70.7902C6.55293 74.0543 5.37226 77.7596 7.24994 81.0047C9.12763 84.2499 12.9778 85.1181 16.3539 85.8487C17.8664 86.1761 20.1472 86.6695 20.7446 87.272C21.3421 87.8745 21.8257 90.1471 22.1671 91.6605C22.8973 95.0385 23.7224 98.8671 27.0083 100.77C30.2942 102.672 33.9548 101.467 37.217 100.423C38.8055 99.9204 40.9724 99.2277 41.8259 99.4507C42.5751 99.6547 44.1113 101.348 45.145 102.473C47.5158 105.063 50.1474 108 54.0119 108C57.8763 108 60.5316 105.063 62.8787 102.473C63.8934 101.348 65.4297 99.6547 66.1978 99.4507C67.0513 99.223 69.2182 99.9251 70.8019 100.423C74.0689 101.467 77.7721 102.648 81.0154 100.77C84.2587 98.8909 85.1264 95.0385 85.8566 91.6605C86.1838 90.1471 86.6769 87.865 87.2791 87.272C87.8813 86.679 90.1573 86.1856 91.6698 85.8487C95.0459 85.1181 98.8724 84.2926 100.774 81.0047C102.675 77.7169 101.471 74.0543 100.428 70.7902C99.9203 69.2008 99.228 67.0327 99.4556 66.1787C99.6595 65.4291 101.352 63.8919 102.476 62.8577C105.065 60.514 108 57.8524 108 53.9858C108 50.1191 104.975 47.4433 102.386 45.1139ZM97.6111 57.582C95.4631 59.5271 93.2393 61.5435 92.4949 64.3237C91.7315 67.1703 92.7035 70.2398 93.5618 72.9346C93.9932 74.2725 94.7898 76.7681 94.5338 77.418C94.107 78.0016 91.4849 78.5709 90.0767 78.8745C87.2032 79.496 84.2302 80.1365 82.1629 82.1956C80.0955 84.2546 79.4507 87.2388 78.8437 90.1139C78.5403 91.5372 77.9713 94.1465 77.4213 94.5593C76.7527 94.8297 74.2586 94.0327 72.9214 93.6104C70.2282 92.7517 67.1841 91.7791 64.3154 92.543C61.5368 93.2878 59.5264 95.5129 57.5776 97.6621C56.7146 98.611 54.6946 100.85 53.9834 100.85C53.2722 100.85 51.2522 98.6157 50.3892 97.6621C48.4452 95.5129 46.43 93.2878 43.6514 92.543C42.9285 92.3547 42.184 92.2622 41.4371 92.2678C39.2559 92.2678 37.0511 92.9699 35.0454 93.6104C33.7082 94.0422 31.2141 94.8392 30.5645 94.583C29.9813 94.156 29.4123 91.5324 29.1088 90.1234C28.4877 87.2483 27.8476 84.2736 25.7897 82.2051C23.7318 80.1365 20.7494 79.4913 17.8759 78.884C16.4534 78.5804 13.8455 78.0111 13.433 77.4607C13.1675 76.7918 13.9593 74.2963 14.3813 72.9584C15.2396 70.2636 16.2116 67.213 15.4482 64.3474C14.7038 61.5672 12.48 59.5556 10.332 57.6057C9.38368 56.7422 7.14563 54.7211 7.14563 54.0095C7.14563 53.2978 9.37893 51.2768 10.332 50.4133C12.48 48.4634 14.7038 46.4518 15.4482 43.6716C16.2116 40.825 15.2396 37.7554 14.3813 35.0606C13.9499 33.7227 13.158 31.2225 13.4093 30.5772C13.8361 29.9937 16.4582 29.4244 17.8664 29.1207C20.7399 28.4992 23.7129 27.8587 25.7802 25.7997C27.8476 23.7406 28.4924 20.7565 29.0994 17.8814C29.4028 16.4581 29.9718 13.8487 30.5218 13.436C31.1904 13.1703 33.6845 13.9626 35.0216 14.3848C37.7101 15.2151 40.778 16.1877 43.623 15.4238C46.4015 14.679 48.412 12.4539 50.3608 10.3047C51.2238 9.35582 53.2437 7.1165 53.955 7.1165C54.6662 7.1165 56.6861 9.35108 57.5491 10.3047C59.4979 12.4539 61.5084 14.679 64.287 15.4238C67.1319 16.1877 70.1998 15.2151 72.893 14.3564C74.2301 13.9246 76.7242 13.1323 77.3738 13.3838C77.9571 13.8108 78.5261 16.4344 78.8295 17.8434C79.4507 20.7185 80.0908 23.6932 82.1487 25.7617C84.2065 27.8303 87.189 28.4755 90.0624 29.0828C91.4849 29.3864 94.0928 29.9557 94.5053 30.5061C94.7756 31.175 93.979 33.6705 93.557 35.0084C92.7035 37.7317 91.7315 40.8013 92.4949 43.6479C93.2393 46.428 95.4631 48.4396 97.6111 50.3896C98.5594 51.253 100.797 53.2741 100.797 53.9858C100.797 54.6974 98.5642 56.7185 97.6111 57.582ZM71.4705 36.8397L44.7372 63.5741L36.4394 55.2715C36.1091 54.941 35.7169 54.6788 35.2853 54.4999C34.8537 54.321 34.3911 54.229 33.924 54.229C33.4568 54.229 32.9942 54.321 32.5626 54.4999C32.131 54.6788 31.7389 54.941 31.4085 55.2715C31.0782 55.602 30.8162 55.9944 30.6374 56.4262C30.4586 56.8581 30.3666 57.3209 30.3666 57.7883C30.3666 58.2558 30.4586 58.7186 30.6374 59.1505C30.8162 59.5823 31.0782 59.9747 31.4085 60.3052L42.2242 71.1223C42.5544 71.453 42.9466 71.7153 43.3782 71.8942C43.8098 72.0732 44.2724 72.1653 44.7396 72.1653C45.2068 72.1653 45.6694 72.0732 46.101 71.8942C46.5326 71.7153 46.9248 71.453 47.255 71.1223L76.5014 41.8593C76.8409 41.5309 77.1116 41.1381 77.2978 40.7039C77.4839 40.2697 77.5818 39.8027 77.5857 39.3303C77.5896 38.8578 77.4994 38.3893 77.3204 37.9521C77.1414 37.5149 76.8771 37.1177 76.5431 36.7838C76.209 36.4498 75.8118 36.1858 75.3747 36.0071C74.9376 35.8284 74.4692 35.7386 73.997 35.7429C73.5249 35.7472 73.0583 35.8456 72.6245 36.0323C72.1907 36.219 71.7984 36.4903 71.4705 36.8303V36.8397ZM102.386 45.1139C101.262 44.0986 99.5694 42.5614 99.3655 41.7928C99.1379 40.9388 99.8397 38.7707 100.338 37.1861C101.381 33.9172 102.561 30.2119 100.684 26.9668C98.806 23.7217 94.9558 22.8535 91.5798 22.1228C90.0672 21.7955 87.7865 21.3021 87.189 20.6995C86.5916 20.097 86.1079 17.8197 85.7665 16.3063C85.0363 12.9283 84.2113 9.09963 80.9253 7.19715C77.6394 5.29468 73.9788 6.49974 70.7166 7.54349C69.1282 8.04639 66.9612 8.73906 66.1077 8.49236C65.3586 8.28835 63.8223 6.59462 62.7886 5.47022C60.4794 2.93674 57.8194 0 53.955 0C50.0905 0 47.4162 2.93674 45.0881 5.52715C44.0971 6.64207 42.5371 8.34528 41.7879 8.5398C40.9344 8.76753 38.7675 8.06537 37.1791 7.59093C33.9168 6.54718 30.2136 5.36584 26.9704 7.2446C23.7271 9.12335 22.8594 12.9758 22.1292 16.3537C21.802 17.8672 21.3089 20.1492 20.7067 20.747C20.1045 21.3448 17.8285 21.8287 16.3159 22.1703C12.9541 22.8724 9.12763 23.7217 7.22624 26.9858C5.32484 30.2499 6.52922 33.9362 7.5866 37.2051C8.08921 38.7897 8.78623 40.9578 8.53493 41.8118C8.33104 42.5614 6.63828 44.0986 5.51451 45.1328C2.93507 47.4433 0 50.1191 0 53.9858C0 57.8524 2.93507 60.514 5.52399 62.8577C6.64776 63.873 8.34052 65.4101 8.54441 66.1787C8.77201 67.0327 8.07025 69.2008 7.59608 70.7902C6.55293 74.0543 5.37226 77.7596 7.24994 81.0047C9.12763 84.2499 12.9778 85.1181 16.3539 85.8487C17.8664 86.1761 20.1472 86.6695 20.7446 87.272C21.3421 87.8745 21.8257 90.1471 22.1671 91.6605C22.8973 95.0385 23.7224 98.8671 27.0083 100.77C30.2942 102.672 33.9548 101.467 37.217 100.423C38.8055 99.9204 40.9724 99.2277 41.8259 99.4507C42.5751 99.6547 44.1113 101.348 45.145 102.473C47.5158 105.063 50.1474 108 54.0119 108C57.8763 108 60.5316 105.063 62.8787 102.473C63.8934 101.348 65.4297 99.6547 66.1978 99.4507C67.0513 99.223 69.2182 99.9251 70.8019 100.423C74.0689 101.467 77.7721 102.648 81.0154 100.77C84.2587 98.8909 85.1264 95.0385 85.8566 91.6605C86.1838 90.1471 86.6769 87.865 87.2791 87.272C87.8813 86.679 90.1573 86.1856 91.6698 85.8487C95.0459 85.1181 98.8724 84.2926 100.774 81.0047C102.675 77.7169 101.471 74.0543 100.428 70.7902C99.9203 69.2008 99.228 67.0327 99.4556 66.1787C99.6595 65.4291 101.352 63.8919 102.476 62.8577C105.065 60.514 108 57.8524 108 53.9858C108 50.1191 104.975 47.4433 102.386 45.1139ZM97.6111 57.582C95.4631 59.5271 93.2393 61.5435 92.4949 64.3237C91.7315 67.1703 92.7035 70.2398 93.5618 72.9346C93.9932 74.2725 94.7898 76.7681 94.5338 77.418C94.107 78.0016 91.4849 78.5709 90.0767 78.8745C87.2032 79.496 84.2302 80.1365 82.1629 82.1956C80.0955 84.2546 79.4507 87.2388 78.8437 90.1139C78.5403 91.5372 77.9713 94.1465 77.4213 94.5593C76.7527 94.8297 74.2586 94.0327 72.9214 93.6104C70.2282 92.7517 67.1841 91.7791 64.3154 92.543C61.5368 93.2878 59.5264 95.5129 57.5776 97.6621C56.7146 98.611 54.6946 100.85 53.9834 100.85C53.2722 100.85 51.2522 98.6157 50.3892 97.6621C48.4452 95.5129 46.43 93.2878 43.6514 92.543C42.9285 92.3547 42.184 92.2622 41.4371 92.2678C39.2559 92.2678 37.0511 92.9699 35.0454 93.6104C33.7082 94.0422 31.2141 94.8392 30.5645 94.583C29.9813 94.156 29.4123 91.5324 29.1088 90.1234C28.4877 87.2483 27.8476 84.2736 25.7897 82.2051C23.7318 80.1365 20.7494 79.4913 17.8759 78.884C16.4534 78.5804 13.8455 78.0111 13.433 77.4607C13.1675 76.7918 13.9593 74.2963 14.3813 72.9584C15.2396 70.2636 16.2116 67.213 15.4482 64.3474C14.7038 61.5672 12.48 59.5556 10.332 57.6057C9.38368 56.7422 7.14563 54.7211 7.14563 54.0095C7.14563 53.2978 9.37893 51.2768 10.332 50.4133C12.48 48.4634 14.7038 46.4518 15.4482 43.6716C16.2116 40.825 15.2396 37.7554 14.3813 35.0606C13.9499 33.7227 13.158 31.2225 13.4093 30.5772C13.8361 29.9937 16.4582 29.4244 17.8664 29.1207C20.7399 28.4992 23.7129 27.8587 25.7802 25.7997C27.8476 23.7406 28.4924 20.7565 29.0994 17.8814C29.4028 16.4581 29.9718 13.8487 30.5218 13.436C31.1904 13.1703 33.6845 13.9626 35.0216 14.3848C37.7101 15.2151 40.778 16.1877 43.623 15.4238C46.4015 14.679 48.412 12.4539 50.3608 10.3047C51.2238 9.35582 53.2437 7.1165 53.955 7.1165C54.6662 7.1165 56.6861 9.35108 57.5491 10.3047C59.4979 12.4539 61.5084 14.679 64.287 15.4238C67.1319 16.1877 70.1998 15.2151 72.893 14.3564C74.2301 13.9246 76.7242 13.1323 77.3738 13.3838C77.9571 13.8108 78.5261 16.4344 78.8295 17.8434C79.4507 20.7185 80.0908 23.6932 82.1487 25.7617C84.2065 27.8303 87.189 28.4755 90.0624 29.0828C91.4849 29.3864 94.0928 29.9557 94.5053 30.5061C94.7756 31.175 93.979 33.6705 93.557 35.0084C92.7035 37.7317 91.7315 40.8013 92.4949 43.6479C93.2393 46.428 95.4631 48.4396 97.6111 50.3896C98.5594 51.253 100.797 53.2741 100.797 53.9858C100.797 54.6974 98.5642 56.7185 97.6111 57.582ZM71.4705 36.8397L44.7372 63.5741L36.4394 55.2715C36.1091 54.941 35.7169 54.6788 35.2853 54.4999C34.8537 54.321 34.3911 54.229 33.924 54.229C33.4568 54.229 32.9942 54.321 32.5626 54.4999C32.131 54.6788 31.7389 54.941 31.4085 55.2715C31.0782 55.602 30.8162 55.9944 30.6374 56.4262C30.4586 56.8581 30.3666 57.3209 30.3666 57.7883C30.3666 58.2558 30.4586 58.7186 30.6374 59.1505C30.8162 59.5823 31.0782 59.9747 31.4085 60.3052L42.2242 71.1223C42.5544 71.453 42.9466 71.7153 43.3782 71.8942C43.8098 72.0732 44.2724 72.1653 44.7396 72.1653C45.2068 72.1653 45.6694 72.0732 46.101 71.8942C46.5326 71.7153 46.9248 71.453 47.255 71.1223L76.5014 41.8593C76.8409 41.5309 77.1116 41.1381 77.2978 40.7039C77.4839 40.2697 77.5818 39.8027 77.5857 39.3303C77.5896 38.8578 77.4994 38.3893 77.3204 37.9521C77.1414 37.5149 76.8771 37.1177 76.5431 36.7838C76.209 36.4498 75.8118 36.1858 75.3747 36.0071C74.9376 35.8284 74.4692 35.7386 73.997 35.7429C73.5249 35.7472 73.0583 35.8456 72.6245 36.0323C72.1907 36.219 71.7984 36.4903 71.4705 36.8303V36.8397ZM102.386 45.1139C101.262 44.0986 99.5694 42.5614 99.3655 41.7928C99.1379 40.9388 99.8397 38.7707 100.338 37.1861C101.381 33.9172 102.561 30.2119 100.684 26.9668C98.806 23.7217 94.9558 22.8535 91.5798 22.1228C90.0672 21.7955 87.7865 21.3021 87.189 20.6995C86.5916 20.097 86.1079 17.8197 85.7665 16.3063C85.0363 12.9283 84.2113 9.09963 80.9253 7.19715C77.6394 5.29468 73.9788 6.49974 70.7166 7.54349C69.1282 8.04639 66.9612 8.73906 66.1077 8.49236C65.3586 8.28835 63.8223 6.59462 62.7886 5.47022C60.4794 2.93674 57.8194 0 53.955 0C50.0905 0 47.4162 2.93674 45.0881 5.52715C44.0971 6.64207 42.5371 8.34528 41.7879 8.5398C40.9344 8.76753 38.7675 8.06537 37.1791 7.59093C33.9168 6.54718 30.2136 5.36584 26.9704 7.2446C23.7271 9.12335 22.8594 12.9758 22.1292 16.3537C21.802 17.8672 21.3089 20.1492 20.7067 20.747C20.1045 21.3448 17.8285 21.8287 16.3159 22.1703C12.9541 22.8724 9.12763 23.7217 7.22624 26.9858C5.32484 30.2499 6.52922 33.9362 7.5866 37.2051C8.08921 38.7897 8.78623 40.9578 8.53493 41.8118C8.33104 42.5614 6.63828 44.0986 5.51451 45.1328C2.93507 47.4433 0 50.1191 0 53.9858C0 57.8524 2.93507 60.514 5.52399 62.8577C6.64776 63.873 8.34052 65.4101 8.54441 66.1787C8.77201 67.0327 8.07025 69.2008 7.59608 70.7902C6.55293 74.0543 5.37226 77.7596 7.24994 81.0047C9.12763 84.2499 12.9778 85.1181 16.3539 85.8487C17.8664 86.1761 20.1472 86.6695 20.7446 87.272C21.3421 87.8745 21.8257 90.1471 22.1671 91.6605C22.8973 95.0385 23.7224 98.8671 27.0083 100.77C30.2942 102.672 33.9548 101.467 37.217 100.423C38.8055 99.9204 40.9724 99.2277 41.8259 99.4507C42.5751 99.6547 44.1113 101.348 45.145 102.473C47.5158 105.063 50.1474 108 54.0119 108C57.8763 108 60.5316 105.063 62.8787 102.473C63.8934 101.348 65.4297 99.6547 66.1978 99.4507C67.0513 99.223 69.2182 99.9251 70.8019 100.423C74.0689 101.467 77.7721 102.648 81.0154 100.77C84.2587 98.8909 85.1264 95.0385 85.8566 91.6605C86.1838 90.1471 86.6769 87.865 87.2791 87.272C87.8813 86.679 90.1573 86.1856 91.6698 85.8487C95.0459 85.1181 98.8724 84.2926 100.774 81.0047C102.675 77.7169 101.471 74.0543 100.428 70.7902C99.9203 69.2008 99.228 67.0327 99.4556 66.1787C99.6595 65.4291 101.352 63.8919 102.476 62.8577C105.065 60.514 108 57.8524 108 53.9858C108 50.1191 104.975 47.4433 102.386 45.1139ZM97.6111 57.582C95.4631 59.5271 93.2393 61.5435 92.4949 64.3237C91.7315 67.1703 92.7035 70.2398 93.5618 72.9346C93.9932 74.2725 94.7898 76.7681 94.5338 77.418C94.107 78.0016 91.4849 78.5709 90.0767 78.8745C87.2032 79.496 84.2302 80.1365 82.1629 82.1956C80.0955 84.2546 79.4507 87.2388 78.8437 90.1139C78.5403 91.5372 77.9713 94.1465 77.4213 94.5593C76.7527 94.8297 74.2586 94.0327 72.9214 93.6104C70.2282 92.7517 67.1841 91.7791 64.3154 92.543C61.5368 93.2878 59.5264 95.5129 57.5776 97.6621C56.7146 98.611 54.6946 100.85 53.9834 100.85C53.2722 100.85 51.2522 98.6157 50.3892 97.6621C48.4452 95.5129 46.43 93.2878 43.6514 92.543C42.9285 92.3547 42.184 92.2622 41.4371 92.2678C39.2559 92.2678 37.0511 92.9699 35.0454 93.6104C33.7082 94.0422 31.2141 94.8392 30.5645 94.583C29.9813 94.156 29.4123 91.5324 29.1088 90.1234C28.4877 87.2483 27.8476 84.2736 25.7897 82.2051C23.7318 80.1365 20.7494 79.4913 17.8759 78.884C16.4534 78.5804 13.8455 78.0111 13.433 77.4607C13.1675 76.7918 13.9593 74.2963 14.3813 72.9584C15.2396 70.2636 16.2116 67.213 15.4482 64.3474C14.7038 61.5672 12.48 59.5556 10.332 57.6057C9.38368 56.7422 7.14563 54.7211 7.14563 54.0095C7.14563 53.2978 9.37893 51.2768 10.332 50.4133C12.48 48.4634 14.7038 46.4518 15.4482 43.6716C16.2116 40.825 15.2396 37.7554 14.3813 35.0606C13.9499 33.7227 13.158 31.2225 13.4093 30.5772C13.8361 29.9937 16.4582 29.4244 17.8664 29.1207C20.7399 28.4992 23.7129 27.8587 25.7802 25.7997C27.8476 23.7406 28.4924 20.7565 29.0994 17.8814C29.4028 16.4581 29.9718 13.8487 30.5218 13.436C31.1904 13.1703 33.6845 13.9626 35.0216 14.3848C37.7101 15.2151 40.778 16.1877 43.623 15.4238C46.4015 14.679 48.412 12.4539 50.3608 10.3047C51.2238 9.35582 53.2437 7.1165 53.955 7.1165C54.6662 7.1165 56.6861 9.35108 57.5491 10.3047C59.4979 12.4539 61.5084 14.679 64.287 15.4238C67.1319 16.1877 70.1998 15.2151 72.893 14.3564C74.2301 13.9246 76.7242 13.1323 77.3738 13.3838C77.9571 13.8108 78.5261 16.4344 78.8295 17.8434C79.4507 20.7185 80.0908 23.6932 82.1487 25.7617C84.2065 27.8303 87.189 28.4755 90.0624 29.0828C91.4849 29.3864 94.0928 29.9557 94.5053 30.5061C94.7756 31.175 93.979 33.6705 93.557 35.0084C92.7035 37.7317 91.7315 40.8013 92.4949 43.6479C93.2393 46.428 95.4631 48.4396 97.6111 50.3896C98.5594 51.253 100.797 53.2741 100.797 53.9858C100.797 54.6974 98.5642 56.7185 97.6111 57.582ZM71.4705 36.8397L44.7372 63.5741L36.4394 55.2715C36.1091 54.941 35.7169 54.6788 35.2853 54.4999C34.8537 54.321 34.3911 54.229 33.924 54.229C33.4568 54.229 32.9942 54.321 32.5626 54.4999C32.131 54.6788 31.7389 54.941 31.4085 55.2715C31.0782 55.602 30.8162 55.9944 30.6374 56.4262C30.4586 56.8581 30.3666 57.3209 30.3666 57.7883C30.3666 58.2558 30.4586 58.7186 30.6374 59.1505C30.8162 59.5823 31.0782 59.9747 31.4085 60.3052L42.2242 71.1223C42.5544 71.453 42.9466 71.7153 43.3782 71.8942C43.8098 72.0732 44.2724 72.1653 44.7396 72.1653C45.2068 72.1653 45.6694 72.0732 46.101 71.8942C46.5326 71.7153 46.9248 71.453 47.255 71.1223L76.5014 41.8593C76.8409 41.5309 77.1116 41.1381 77.2978 40.7039C77.4839 40.2697 77.5818 39.8027 77.5857 39.3303C77.5896 38.8578 77.4994 38.3893 77.3204 37.9521C77.1414 37.5149 76.8771 37.1177 76.5431 36.7838C76.209 36.4498 75.8118 36.1858 75.3747 36.0071C74.9376 35.8284 74.4692 35.7386 73.997 35.7429C73.5249 35.7472 73.0583 35.8456 72.6245 36.0323C72.1907 36.219 71.7984 36.4903 71.4705 36.8303V36.8397ZM76.5014 36.8397C76.1711 36.5091 75.779 36.2468 75.3474 36.0678C74.9158 35.8889 74.4531 35.7968 73.9859 35.7968C73.5188 35.7968 73.0561 35.8889 72.6245 36.0678C72.1929 36.2468 71.8008 36.5091 71.4705 36.8397L44.7372 63.5741L36.4394 55.2715C36.1091 54.941 35.7169 54.6788 35.2853 54.4999C34.8537 54.321 34.3911 54.229 33.924 54.229C33.4568 54.229 32.9942 54.321 32.5626 54.4999C32.131 54.6788 31.7389 54.941 31.4085 55.2715C31.0782 55.602 30.8162 55.9944 30.6374 56.4262C30.4586 56.8581 30.3666 57.3209 30.3666 57.7883C30.3666 58.2558 30.4586 58.7186 30.6374 59.1505C30.8162 59.5823 31.0782 59.9747 31.4085 60.3052L42.2242 71.1223C42.5544 71.453 42.9466 71.7153 43.3782 71.8942C43.8098 72.0732 44.2724 72.1653 44.7396 72.1653C45.2068 72.1653 45.6694 72.0732 46.101 71.8942C46.5326 71.7153 46.9248 71.453 47.255 71.1223L76.5014 41.8593C77.1656 41.1931 77.5386 40.2905 77.5386 39.3495C77.5386 38.4085 77.1656 37.5059 76.5014 36.8397Z" fill="#FFD600"/>
</svg>
