<svg width="90" height="86" viewBox="0 0 90 86" fill="none" xmlns="http://www.w3.org/2000/svg">
<path d="M90 43.75C90 37.75 85.3125 34.5625 78.75 34.5625H59.8125C61.125 29.5 61.875 24.625 61.875 20.5C61.875 4.1875 57.375 0.8125 53.4375 0.8125C50.8125 0.8125 48.9375 1 46.3125 2.6875C45.5625 3.0625 45.1875 3.8125 45 4.5625L42.1875 19.75C39.1875 27.8125 31.5 34.75 25.3125 39.4375V79.5625C27.375 79.5625 30 80.6875 32.4375 82C35.4375 83.5 38.625 85 42.1875 85H69C74.625 85 78.75 80.5 78.75 76.5625C78.75 75.8125 78.75 75.0625 78.5625 74.5C82.125 73.1875 84.375 70.1875 84.375 66.8125C84.375 65.125 84 63.625 83.4375 62.5C85.5 61 87.75 58.5625 87.75 55.5625C87.75 54.0625 87 52.1875 85.875 50.875C88.3125 49 90 46.375 90 43.75ZM84.1875 43.75C84.1875 47.3125 80.4375 47.6875 79.875 49.375C79.3125 51.25 82.125 52 82.125 55.375C82.125 58.9375 77.8125 58.9375 77.25 60.625C76.5 62.6875 78.5625 63.4375 78.5625 66.8125C78.5625 67 78.5625 67.1875 78.5625 67.375C78 70.1875 73.6875 70.375 72.9375 71.5C72.1875 72.8125 73.125 73.5625 73.125 76.5625C73.125 78.25 71.25 79.375 69 79.375H42.1875C40.125 79.375 37.5 78.25 35.0625 76.9375C32.8125 75.8125 30.5625 74.6875 28.125 74.125V44.3125C35.0625 39.0625 44.0625 31 47.625 21.25C47.625 21.0625 47.625 20.875 47.8125 20.875L50.4375 6.81252C51.375 6.43752 52.125 6.4375 53.625 6.4375C54.1875 6.4375 56.4375 9.8125 56.4375 20.5C56.4375 24.625 55.6875 29.3125 54.1875 34.5625H53.4375C51.9375 34.5625 50.625 35.875 50.625 37.375C50.625 38.875 51.9375 40.1875 53.4375 40.1875H78.75C81.5625 40.1875 84.1875 41.5 84.1875 43.75Z" fill="white"/>
<path d="M22.5 85.1875H5.625C2.4375 85.1875 0 82.75 0 79.5625V40.1875C0 37 2.4375 34.5625 5.625 34.5625H22.5C25.6875 34.5625 28.125 37 28.125 40.1875V79.5625C28.125 82.75 25.6875 85.1875 22.5 85.1875ZM5.625 40.1875V79.5625H22.5V40.1875H5.625Z" fill="white"/>
</svg>
