<svg width="76" height="106" viewBox="0 0 76 106" fill="none" xmlns="http://www.w3.org/2000/svg">
<path d="M0.832643 53.616C2.32092 57.2048 6.12073 58.595 9.47229 59.8211C11.3356 60.5029 13.2633 61.2083 14.1364 62.0813C14.6421 62.5874 15.0907 63.4514 15.5118 64.4473L4.7013 96.4092C4.31165 97.5591 4.65442 98.8306 5.56995 99.6297C6.48548 100.429 7.79212 100.598 8.87757 100.057L16.5533 96.2429L20.4762 103.872C20.9918 104.877 22.026 105.5 23.1422 105.5C23.2169 105.5 23.2916 105.497 23.3678 105.492C24.569 105.402 25.6002 104.601 25.9855 103.459L36.5305 72.2286C37.0608 72.0776 37.5662 71.9661 38.0001 71.9661C38.4341 71.9661 38.9395 72.0776 39.4697 72.2286L50.0148 103.459C50.4 104.601 51.4313 105.402 52.6325 105.492C52.7086 105.497 52.7833 105.5 52.858 105.5C53.9743 105.5 55.0084 104.877 55.5241 103.872L59.4469 96.2429L67.1227 100.057C68.2081 100.598 69.5148 100.429 70.4303 99.6297C71.3458 98.8306 71.6886 97.5591 71.299 96.4092L60.4884 64.4473C60.9096 63.4514 61.3582 62.5874 61.8639 62.0813C62.7384 61.2075 64.6647 60.5029 66.528 59.8211C69.8795 58.5942 73.6793 57.2048 75.1676 53.616C76.6032 50.1509 74.9523 46.5532 73.4948 43.3789C72.6364 41.5105 71.7487 39.5776 71.7487 38.2183C71.7487 36.8582 72.6364 34.926 73.4948 33.0562C74.9523 29.8826 76.6032 26.2849 75.1676 22.8198C73.6793 19.231 69.8795 17.8416 66.528 16.6148C64.6647 15.9329 62.7384 15.2283 61.8639 14.3545C60.9909 13.4807 60.2848 11.5537 59.6036 9.68971C58.3776 6.33814 56.9874 2.53834 53.3986 1.05152C49.9357 -0.387687 46.3351 1.26612 43.1622 2.72364C41.2931 3.58204 39.3595 4.46974 38.0001 4.46974C36.6408 4.46974 34.7072 3.58204 32.838 2.72364C29.6652 1.26612 26.0616 -0.385489 22.6032 1.05079C19.0128 2.53907 17.6227 6.33888 16.3966 9.69044C15.7155 11.5545 15.0094 13.4815 14.1364 14.3545C13.2633 15.2283 11.3356 15.9336 9.47229 16.6155C6.12073 17.8416 2.32092 19.2317 0.832643 22.8206C-0.602904 26.2857 1.04798 29.8826 2.50549 33.0569C3.36389 34.926 4.25159 36.8582 4.25159 38.2183C4.25159 39.5776 3.36389 41.5105 2.50549 43.3789C1.04797 46.5532 -0.602904 50.1509 0.832643 53.616ZM22.5695 94.822L20.5363 90.8677C19.7877 89.4094 18.0021 88.822 16.5343 89.553L12.7111 91.4522L19.1216 72.5006C20.002 73.7276 21.1035 74.7642 22.6032 75.3858C23.545 75.7761 24.4957 75.938 25.4449 75.938C26.7022 75.938 27.9564 75.6528 29.1829 75.2375L22.5695 94.822ZM59.466 89.553C57.9982 88.822 56.2125 89.4094 55.464 90.8677L53.4308 94.822L46.8167 75.2356C48.9722 75.9652 51.2136 76.292 53.3971 75.3858C54.8967 74.7642 55.9983 73.7276 56.8787 72.5006L63.2892 91.4522L59.466 89.553ZM7.95911 30.5527C7.05969 28.5972 5.94202 26.1626 6.37561 25.1189C6.85462 23.9617 9.34046 23.052 11.5348 22.25C14.0089 21.344 16.568 20.408 18.3785 18.5974C20.1891 16.7869 21.1251 14.2271 22.0319 11.7522C22.8331 9.55933 23.7428 7.07349 24.9015 6.59303C25.0612 6.52711 25.2531 6.49708 25.4713 6.49708C26.6783 6.49708 28.6779 7.41554 30.3346 8.17652C32.7897 9.30372 35.3283 10.4697 38.0001 10.4697C40.672 10.4697 43.2106 9.30372 45.6657 8.17652C47.6227 7.27857 50.0587 6.16163 51.1002 6.59376C52.2575 7.07349 53.1671 9.5586 53.9684 11.7515C54.8751 14.2271 55.8112 16.7861 57.6217 18.5967C59.4323 20.4072 61.9913 21.344 64.4669 22.25C66.6598 23.052 69.1456 23.9617 69.6246 25.1182C70.0582 26.1619 68.9406 28.5964 68.0411 30.5527C66.9147 33.0078 65.7487 35.5471 65.7487 38.2183C65.7487 40.8894 66.9147 43.428 68.0411 45.8831C68.9406 47.8394 70.0582 50.2739 69.6246 51.3176C69.1456 52.4741 66.6598 53.3838 64.4669 54.1858C61.9913 55.0918 59.4323 56.0286 57.6217 57.8391C55.8112 59.6497 54.8751 62.2088 53.9684 64.6843C53.1657 66.8772 52.2575 69.363 51.1002 69.8428C50.0587 70.2808 47.6227 69.1587 45.6657 68.2593C43.2106 67.1321 40.672 65.9661 38.0001 65.9661C35.3283 65.9661 32.7897 67.1321 30.3346 68.2593C28.379 69.1587 25.9445 70.2808 24.9 69.8428C23.7428 69.363 22.8346 66.8772 22.0319 64.6843C21.1251 62.2088 20.1891 59.6497 18.3785 57.8384C16.568 56.0286 14.0089 55.0925 11.5348 54.1865C9.34046 53.3845 6.85462 52.4749 6.37561 51.3176C5.94202 50.2739 7.05969 47.8394 7.95911 45.8831C9.08557 43.428 10.2516 40.8894 10.2516 38.2183C10.2516 35.5464 9.08557 33.0078 7.95911 30.5527Z" fill="#FFD600"/>
<path d="M38 59.0198C49.4697 59.0198 58.8022 49.688 58.8022 38.2183C58.8022 26.7485 49.4697 17.4167 38 17.4167C26.5303 17.4167 17.1978 26.7485 17.1978 38.2183C17.1978 49.688 26.5303 59.0198 38 59.0198ZM38 23.4167C46.1621 23.4167 52.8022 30.0569 52.8022 38.2183C52.8022 46.3796 46.1621 53.0198 38 53.0198C29.8379 53.0198 23.1978 46.3796 23.1978 38.2183C23.1978 30.0569 29.8379 23.4167 38 23.4167Z" fill="#FFD600"/>
</svg>
