<svg width="22" height="21" viewBox="0 0 22 21" fill="none" xmlns="http://www.w3.org/2000/svg">
<path d="M15.8753 0.25C13.9903 0.25 12.1812 1.1275 11.0003 2.51417C9.81949 1.1275 8.01033 0.25 6.12533 0.25C2.78866 0.25 0.166992 2.87167 0.166992 6.20833C0.166992 10.3033 3.85033 13.64 9.42949 18.71L11.0003 20.1292L12.5712 18.6992C18.1503 13.64 21.8337 10.3033 21.8337 6.20833C21.8337 2.87167 19.212 0.25 15.8753 0.25ZM11.1087 17.0958L11.0003 17.2042L10.892 17.0958C5.73532 12.4267 2.33366 9.33917 2.33366 6.20833C2.33366 4.04167 3.95866 2.41667 6.12533 2.41667C7.79366 2.41667 9.41866 3.48917 9.99283 4.97333H12.0187C12.582 3.48917 14.207 2.41667 15.8753 2.41667C18.042 2.41667 19.667 4.04167 19.667 6.20833C19.667 9.33917 16.2653 12.4267 11.1087 17.0958Z" fill="#272727"/>
</svg>
