<svg width="30" height="30" viewBox="0 0 30 30" fill="none" xmlns="http://www.w3.org/2000/svg">
<path d="M14.9999 0.500049C12.1332 0.505039 9.33222 1.35969 6.95103 2.956C4.56984 4.55231 2.71527 6.81864 1.62167 9.46861C0.528068 12.1186 0.244518 15.0332 0.806851 17.8443C1.36918 20.6554 2.75216 23.2367 4.78102 25.262C6.80989 27.2873 9.39358 28.6658 12.2056 29.2233C15.0176 29.7807 17.9318 29.4921 20.5799 28.3939C23.2279 27.2957 25.491 25.4372 27.0832 23.0532C28.6754 20.6692 29.5251 17.8668 29.5252 15C29.5268 13.0933 29.1521 11.205 28.4224 9.44333C27.6927 7.68171 26.6224 6.08146 25.273 4.73435C23.9235 3.38724 22.3214 2.31977 20.5585 1.59315C18.7957 0.866534 16.9067 0.495066 14.9999 0.500049ZM24.5782 15.4291C24.2861 16.1184 23.8568 16.741 23.3163 17.259L15.6435 24.9191C15.5613 25.0031 15.4631 25.0697 15.3547 25.1153C15.2464 25.1608 15.1301 25.1843 15.0125 25.1843C14.895 25.1843 14.7787 25.1608 14.6703 25.1153C14.562 25.0697 14.4638 25.0031 14.3815 24.9191L6.65831 17.259C6.13634 16.7395 5.72214 16.122 5.43951 15.442C5.15687 14.762 5.01138 14.0328 5.01138 13.2964C5.01138 12.56 5.15687 11.8308 5.43951 11.1508C5.72214 10.4708 6.13634 9.85329 6.65831 9.33382C7.73165 8.28174 9.1747 7.69244 10.6777 7.69244C12.1806 7.69244 13.6237 8.28174 14.697 9.33382L14.9999 9.64931L15.3028 9.33382C16.3761 8.28174 17.8192 7.69244 19.3221 7.69244C20.8251 7.69244 22.2682 8.28174 23.3415 9.33382C23.8764 9.85658 24.3049 10.478 24.6035 11.1637C24.8907 11.8467 25.0366 12.5807 25.0325 13.3216C25.0236 14.0474 24.8691 14.7641 24.5782 15.4291Z" fill="#FFD600"/>
</svg>
