<svg width="30" height="30" viewBox="0 0 30 30" fill="none" xmlns="http://www.w3.org/2000/svg">
<path d="M19.6378 10.3625C19.5216 10.2453 19.3833 10.1524 19.231 10.0889C19.0787 10.0254 18.9153 9.99276 18.7503 9.99276C18.5853 9.99276 18.4219 10.0254 18.2696 10.0889C18.1172 10.1524 17.979 10.2453 17.8628 10.3625L15.0003 13.2375L12.1378 10.3625C11.9024 10.1271 11.5832 9.99489 11.2503 9.99489C10.9174 9.99489 10.5982 10.1271 10.3628 10.3625C10.1274 10.5979 9.99517 10.9171 9.99517 11.25C9.99517 11.5829 10.1274 11.9021 10.3628 12.1375L13.2378 15L10.3628 17.8625C10.2456 17.9787 10.1526 18.117 10.0892 18.2693C10.0257 18.4216 9.99303 18.585 9.99303 18.75C9.99303 18.915 10.0257 19.0784 10.0892 19.2307C10.1526 19.3831 10.2456 19.5213 10.3628 19.6375C10.479 19.7547 10.6172 19.8477 10.7696 19.9111C10.9219 19.9746 11.0853 20.0073 11.2503 20.0073C11.4153 20.0073 11.5787 19.9746 11.731 19.9111C11.8833 19.8477 12.0216 19.7547 12.1378 19.6375L15.0003 16.7625L17.8628 19.6375C17.979 19.7547 18.1172 19.8477 18.2696 19.9111C18.4219 19.9746 18.5853 20.0073 18.7503 20.0073C18.9153 20.0073 19.0787 19.9746 19.231 19.9111C19.3833 19.8477 19.5216 19.7547 19.6378 19.6375C19.7549 19.5213 19.8479 19.3831 19.9114 19.2307C19.9749 19.0784 20.0075 18.915 20.0075 18.75C20.0075 18.585 19.9749 18.4216 19.9114 18.2693C19.8479 18.117 19.7549 17.9787 19.6378 17.8625L16.7628 15L19.6378 12.1375C19.7549 12.0213 19.8479 11.8831 19.9114 11.7307C19.9749 11.5784 20.0075 11.415 20.0075 11.25C20.0075 11.085 19.9749 10.9216 19.9114 10.7693C19.8479 10.617 19.7549 10.4787 19.6378 10.3625ZM23.8378 6.16251C22.6847 4.96863 21.3054 4.01635 19.7803 3.36124C18.2553 2.70613 16.615 2.3613 14.9553 2.34688C13.2956 2.33245 11.6496 2.64873 10.1134 3.27724C8.57715 3.90575 7.1815 4.83391 6.00785 6.00757C4.83419 7.18123 3.90602 8.57688 3.27751 10.1131C2.649 11.6493 2.33273 13.2953 2.34715 14.955C2.36157 16.6148 2.7064 18.255 3.36151 19.7801C4.01663 21.3051 4.9689 22.6844 6.16278 23.8375C7.31587 25.0314 8.69518 25.9837 10.2202 26.6388C11.7453 27.2939 13.3855 27.6387 15.0453 27.6531C16.705 27.6676 18.351 27.3513 19.8872 26.7228C21.4234 26.0943 22.8191 25.1661 23.9927 23.9924C25.1664 22.8188 26.0945 21.4231 26.7231 19.8869C27.3516 18.3507 27.6678 16.7047 27.6534 15.045C27.639 13.3853 27.2942 11.745 26.6391 10.22C25.9839 8.6949 25.0317 7.31559 23.8378 6.16251ZM22.0753 22.075C20.4403 23.7118 18.2885 24.731 15.9863 24.9591C13.6841 25.1872 11.374 24.6101 9.44969 23.326C7.52533 22.0419 6.10573 20.1303 5.43275 17.9169C4.75977 15.7035 4.87504 13.3252 5.75892 11.1872C6.64281 9.04929 8.24063 7.28394 10.2801 6.19196C12.3197 5.09998 14.6747 4.74892 16.944 5.1986C19.2134 5.64828 21.2566 6.87087 22.7256 8.65808C24.1946 10.4453 24.9985 12.6866 25.0003 15C25.0047 16.3141 24.7485 17.6161 24.2464 18.8305C23.7444 20.0449 23.0064 21.1477 22.0753 22.075Z" fill="#272727"/>
</svg>
