<svg width="13" height="13" viewBox="0 0 13 13" fill="none" xmlns="http://www.w3.org/2000/svg">
<path d="M6.5 13C10.0899 13 13 10.0899 13 6.5C13 2.91015 10.0899 0 6.5 0C2.91015 0 0 2.91015 0 6.5C0 10.0899 2.91015 13 6.5 13Z" fill="#53CE76"/>
<path d="M9.80078 4.3875L9.59765 4.18437C9.5164 4.10312 9.43515 4.0625 9.3539 4.0625C9.27265 4.0625 9.15078 4.10312 9.11015 4.18437L5.57578 7.71875L3.66641 5.85C3.54453 5.72812 3.30078 5.72812 3.13828 5.85L2.93516 6.05312C2.81328 6.175 2.81328 6.41875 2.93516 6.54062L5.16953 8.775C5.25078 8.85625 5.41328 8.9375 5.53516 8.9375C5.65703 8.9375 5.81953 8.89688 5.90078 8.775L9.80078 4.875C9.88203 4.79375 9.92265 4.7125 9.92265 4.63125C9.92265 4.55 9.88203 4.46875 9.80078 4.3875Z" fill="white"/>
</svg>
